Coordinates
version=1
nRows=7
nColumns=46
inDegrees=yes

Units are S.I. units (second, meters, Newtons, ...)
Angles are in degrees.

endheader
time	pelvis_tilt	pelvis_list	pelvis_rotation	pelvis_tx	pelvis_ty	pelvis_tz	bb_angle	bb_tx	bb_ty	bb_tz	hip_flexion_r	hip_adduction_r	hip_rotation_r	knee_angle_r	knee_angle_r_beta	ankle_angle_r	subtalar_angle_r	mtp_angle_r	crank_angle_r	hip_flexion_l	hip_adduction_l	hip_rotation_l	knee_angle_l	knee_angle_l_beta	ankle_angle_l	subtalar_angle_l	mtp_angle_l	crank_angle_l	lumbar_extension	lumbar_bending	lumbar_rotation	arm_flex_r	arm_add_r	arm_rot_r	elbow_flex_r	pro_sup_r	wrist_flex_r	wrist_dev_r	arm_flex_l	arm_add_l	arm_rot_l	elbow_flex_l	pro_sup_l	wrist_flex_l	wrist_dev_l
      7.50000000	    -20.98536351	      5.51224193	      4.87254696	      0.06701983	      0.98522471	     -0.20382024	      0.00000000	      0.50000000	      0.00000000	      0.25000000	     74.84991002	     -6.57252623	     10.14134330	    106.68308331	      1.86197106	      3.66201034	    -14.36188626	      0.00000000	      0.00000000	     68.45308923	     -1.10545514	     -4.59408748	     53.59456148	      0.93540156	      2.42794192	     -6.02565781	      0.00000000	      0.00000000	    -51.57112059	     -2.37222972	     -7.89415982	     81.34571222	    -17.74485037	     30.53019710	     71.39979499	     48.74798580	      0.00000000	      0.00000000	     83.95366778	    -26.95659042	     33.55817781	     73.26995797	     46.27178204	      0.00000000	      0.00000000
      7.50500000	    -20.85798762	      5.00128124	      5.05371377	      0.06652511	      0.98438265	     -0.20593023	      0.00000000	      0.50000000	      0.00000000	      0.25000000	     76.42111031	     -6.53569410	     10.23835940	    108.79910613	      1.89890263	      3.91978625	    -13.32715470	      0.00000000	      0.00000000	     66.84195729	     -0.89020726	     -4.38588404	     51.48580164	      0.89859676	      1.44577724	     -6.20657462	      0.00000000	      0.00000000	    -51.53771919	     -1.39220218	     -8.00699913	     81.97844169	    -17.15795085	     31.07904659	     71.01618829	     48.73623791	      0.00000000	      0.00000000	     83.55170570	    -27.54961836	     32.85208400	     73.58185589	     46.31229543	      0.00000000	      0.00000000
      7.51000000	    -20.83004416	      4.49116004	      4.98171058	      0.06633387	      0.98395937	     -0.20747667	      0.00000000	      0.50000000	      0.00000000	      0.25000000	     78.06377732	     -6.18213492	     10.40324659	    110.67549279	      1.93165175	      4.00939201	    -12.62156363	      0.00000000	      0.00000000	     65.20999664	     -0.99700675	     -4.33835098	     49.35253283	      0.86136419	      0.81113603	     -6.15563450	      0.00000000	      0.00000000	    -51.42489605	     -0.21745524	     -8.49521345	     83.34499495	    -15.29236223	     32.74749609	     68.76558207	     48.61116279	      0.00000000	      0.00000000	     82.11696477	    -29.67296422	     31.33991811	     75.58436578	     46.80923513	      0.00000000	      0.00000000
      7.51500000	    -20.87135554	      3.94482232	      4.79844443	      0.06623395	      0.98376750	     -0.20862964	      0.00000000	      0.50000000	      0.00000000	      0.25000000	     79.81259511	     -5.74578150	     10.39728599	    112.36675377	      1.96116982	      3.76738714	    -12.32615810	      0.00000000	      0.00000000	     63.60867839	     -1.28596137	     -4.35236963	     47.23927968	      0.82448097	      0.29860385	     -5.78938365	      0.00000000	      0.00000000	    -51.33075013	      0.60813952	     -7.83151588	     83.62772624	    -15.03589475	     32.71312962	     68.91703919	     48.62963953	      0.00000000	      0.00000000	     81.75355668	    -29.95049509	     31.21608593	     75.54741273	     46.80782502	      0.00000000	      0.00000000
      7.52000000	    -20.85142407	      3.47918603	      4.58650786	      0.06623373	      0.98387629	     -0.20965823	      0.00000000	      0.50000000	      0.00000000	      0.25000000	     81.55202797	     -5.35531139	     10.43122623	    113.94527877	      1.98872028	      3.48020718	    -12.03990168	      0.00000000	      0.00000000	     61.86833511	     -1.57929298	     -4.44816618	     45.03886590	      0.78607650	     -0.29592642	     -5.42578699	      0.00000000	      0.00000000	    -51.36953694	      1.35164228	     -7.28508456	     83.97101482	    -14.74581681	     32.78833854	     69.04182946	     48.65612754	      0.00000000	      0.00000000	     81.36554431	    -30.30775230	     31.03319436	     75.53170634	     46.80733859	      0.00000000	      0.00000000
      7.52500000	    -20.61375413	      3.44657379	      4.33195479	      0.06666275	      0.98471399	     -0.21087431	      0.00000000	      0.50000000	      0.00000000	      0.25000000	     83.07837485	     -5.20475073	     10.83653467	    115.38304165	      2.01381398	      3.06577386	    -11.75503985	      0.00000000	      0.00000000	     59.65375272	     -1.56077805	     -4.84303871	     42.59664475	      0.74345170	     -1.32368263	     -5.56126443	      0.00000000	      0.00000000	    -51.72948067	      1.90185489	     -7.41388428	     84.49700991	    -14.01046304	     33.40429844	     68.96515868	     48.71317462	      0.00000000	      0.00000000	     80.69859997	    -31.31521490	     30.00024453	     76.11369072	     46.88995013	      0.00000000	      0.00000000
      7.53000000	    -20.59265404	      2.96046176	      3.88793873	      0.06705559	      0.98503224	     -0.21151351	      0.00000000	      0.50000000	      0.00000000	      0.25000000	     84.85715424	     -4.63310014	     10.77442502	    116.69530336	      2.03671727	      2.22222572	    -11.48488119	      0.00000000	      0.00000000	     57.87380215	     -2.07924893	     -4.97164422	     40.49706287	      0.70680708	     -1.89836792	     -5.15165960	      0.00000000	      0.00000000	    -51.82594930	      2.76003944	     -7.58119873	     85.51994672	    -12.27337737	     34.47528580	     67.47760608	     48.60172752	      0.00000000	      0.00000000	     78.88963780	    -33.33891954	     28.01567177	     78.43331613	     47.37293012	      0.00000000	      0.00000000
